<?xml version="1.0" standalone="no"?>
<!DOCTYPE svg PUBLIC "-//W3C//DTD SVG 20010904//EN"
 "http://www.w3.org/TR/2001/REC-SVG-20010904/DTD/svg10.dtd">
<svg version="1.0" xmlns="http://www.w3.org/2000/svg"
 width="56.000000pt" height="37.000000pt" viewBox="0 0 56.000000 37.000000"
 preserveAspectRatio="xMidYMid meet">

<g transform="translate(0.000000,37.000000) scale(0.100000,-0.100000)"
fill="#000000" stroke="none">
<path d="M0 185 l0 -185 280 0 279 0 -1 143 c-1 107 -3 127 -8 82 -4 -33 -13
-70 -21 -82 -18 -30 -62 -47 -102 -40 -29 4 -34 2 -46 -24 -24 -54 -99 -75
-142 -40 -22 18 -24 18 -53 0 -38 -23 -58 -24 -96 -4 -39 20 -51 46 -54 113
-5 104 39 159 115 149 22 -3 39 -1 39 3 0 5 12 22 26 39 l26 31 -121 0 -121 0
0 -185z"/>
<path d="M349 357 c7 -7 18 -7 33 0 20 9 20 10 -10 10 -22 0 -29 -4 -23 -10z"/>
<path d="M258 319 c-15 -9 -18 -26 -18 -117 0 -117 6 -132 51 -132 47 0 58 28
52 138 -4 72 -9 100 -21 110 -19 14 -41 15 -64 1z"/>
<path d="M407 312 c-11 -12 -17 -36 -17 -71 0 -71 12 -91 55 -91 41 0 55 20
55 79 0 30 -4 41 -15 41 -9 0 -18 6 -21 14 -3 8 -13 13 -23 11 -10 -2 -18 3
-18 11 0 17 14 19 19 3 2 -7 9 -5 17 5 12 14 10 16 -11 16 -14 0 -32 -8 -41
-18z"/>
<path d="M475 300 c3 -5 8 -10 11 -10 2 0 4 5 4 10 0 6 -5 10 -11 10 -5 0 -7
-4 -4 -10z"/>
<path d="M96 234 c-22 -21 -22 -127 0 -148 22 -23 71 -20 84 3 5 11 10 44 10
75 0 61 -16 86 -55 86 -13 0 -31 -7 -39 -16z"/>
</g>
</svg>
