<?xml version="1.0" standalone="no"?>
<!DOCTYPE svg PUBLIC "-//W3C//DTD SVG 20010904//EN"
 "http://www.w3.org/TR/2001/REC-SVG-20010904/DTD/svg10.dtd">
<svg version="1.0" xmlns="http://www.w3.org/2000/svg"
 width="932.000000pt" height="159.000000pt" viewBox="0 0 932.000000 159.000000"
 preserveAspectRatio="xMidYMid meet">

<g transform="translate(0.000000,159.000000) scale(0.100000,-0.100000)"
fill="#000000" stroke="none">
<path d="M0 795 l0 -795 2279 0 2280 0 19 25 c19 24 20 65 1 65 -5 0 -9 16 -9
35 0 19 -3 34 -7 34 -22 -4 -24 3 -7 23 12 14 13 18 3 10 -13 -10 -18 -8 -27
12 -11 26 0 46 27 46 8 0 11 3 8 7 -4 3 -2 12 5 20 8 11 6 18 -10 34 -12 11
-22 28 -22 39 0 24 -17 35 -34 21 -10 -9 -15 -8 -20 5 -5 13 -9 14 -21 4 -10
-9 -15 -9 -15 -1 0 6 -7 11 -16 11 -14 0 -15 -2 -3 -17 12 -14 12 -16 0 -8
-11 6 -13 3 -9 -12 3 -12 1 -27 -4 -34 -8 -11 -9 -10 -4 3 3 10 1 18 -4 18 -5
0 -8 13 -6 30 2 17 -3 35 -10 41 -18 15 -18 24 1 64 31 63 136 64 203 2 58
-53 100 -164 93 -247 -2 -25 4 -41 17 -54 11 -9 26 -37 33 -62 7 -24 16 -44
19 -44 3 0 25 19 49 41 33 30 46 37 52 28 13 -22 18 -7 20 66 1 39 4 91 6 116
l5 45 46 0 c43 -1 46 1 55 31 6 18 14 33 18 33 5 0 4 -11 -1 -25 -5 -14 -6
-25 -2 -25 13 0 28 15 35 32 8 22 33 24 40 3 7 -16 -8 -28 -35 -30 -20 -2 -34
-12 -26 -20 3 -3 27 -8 54 -11 27 -2 61 -7 76 -9 15 -2 31 2 38 10 10 12 9 15
-3 15 -23 0 -31 18 -16 36 12 14 15 14 30 -5 15 -18 18 -19 23 -5 5 12 16 15
40 12 27 -3 36 0 39 14 7 24 34 23 42 -2 3 -11 11 -20 17 -20 12 0 100 62 141
99 l27 25 73 -37 c40 -20 79 -37 88 -37 8 0 20 -9 27 -20 7 -11 16 -20 21 -20
4 0 20 33 35 73 15 39 33 86 39 102 7 17 10 36 9 44 -5 22 6 41 22 35 9 -4 15
-18 15 -37 -1 -34 24 -156 39 -197 10 -24 11 -22 36 33 15 32 24 63 21 68 -4
5 -1 9 5 9 5 0 18 17 28 37 14 30 30 43 87 69 39 18 72 28 73 23 2 -5 8 -9 12
-9 5 0 9 50 8 111 -1 82 3 113 12 119 18 11 20 23 24 200 6 211 5 204 13 197
11 -12 10 -117 -1 -117 -8 0 -8 -3 0 -8 7 -4 10 -45 10 -107 -2 -128 3 -152
20 -105 11 31 13 19 14 -110 1 -80 1 -156 1 -170 -2 -23 4 -27 49 -39 l51 -13
53 50 c30 28 51 53 48 56 -3 4 1 6 10 6 8 0 69 56 136 124 92 94 120 129 115
142 -4 12 -3 15 6 9 18 -11 131 114 239 264 19 25 51 69 71 96 54 72 151 213
151 219 0 3 -1618 6 -3595 6 l-3595 0 0 -795z m4315 775 c-4 -6 -1 -17 5 -25
14 -17 5 -35 -18 -34 -15 1 -15 2 1 6 21 6 22 22 2 29 -12 5 -13 10 -4 20 13
16 23 19 14 4z m-90 -50 c-3 -6 -12 -10 -18 -10 -7 0 -6 4 3 10 12 7 12 12 2
22 -6 6 -12 17 -12 22 0 6 7 0 16 -12 8 -12 12 -27 9 -32z m55 46 c0 -3 -4 -8
-10 -11 -5 -3 -10 -1 -10 4 0 6 5 11 10 11 6 0 10 -2 10 -4z m-110 -35 c6 -13
4 -17 -11 -18 -10 -1 -21 2 -24 8 -3 5 1 6 9 3 21 -8 20 6 -1 22 -17 13 -17
14 0 8 10 -4 22 -14 27 -23z m-70 -5 c0 -3 -4 -8 -10 -11 -5 -3 -10 -1 -10 4
0 6 5 11 10 11 6 0 10 -2 10 -4z m-35 -136 c7 -11 -16 -50 -29 -50 -5 0 -1 9
10 21 16 17 16 22 4 29 -9 6 -10 10 -3 10 6 0 14 -4 18 -10z m32 -5 c0 -8 -4
-12 -9 -9 -5 3 -6 10 -3 15 9 13 12 11 12 -6z m75 6 c-10 -6 -10 -10 2 -20 11
-9 16 -9 21 0 6 8 10 7 17 -2 6 -10 7 -7 3 9 -4 13 -2 22 4 22 6 0 11 -14 11
-31 0 -27 -2 -30 -15 -19 -12 10 -19 10 -27 2 -7 -7 -19 -12 -27 -11 -11 0
-10 3 4 9 18 7 19 8 3 15 -10 4 -18 13 -18 21 0 8 8 14 18 14 13 0 14 -2 4 -9z
m99 -44 c-10 -9 -11 -8 -5 6 3 10 9 15 12 12 3 -3 0 -11 -7 -18z m1954 -7 c3
-5 1 -10 -4 -10 -6 0 -11 5 -11 10 0 6 2 10 4 10 3 0 8 -4 11 -10z m0 -30 c3
-5 1 -10 -4 -10 -6 0 -11 5 -11 10 0 6 2 10 4 10 3 0 8 -4 11 -10z m-2158
-118 c-3 -35 -31 -37 -33 -2 -2 25 13 43 27 34 4 -2 7 -17 6 -32z m113 22 c0
-3 -7 -12 -15 -20 -16 -17 -18 -14 -9 10 6 15 24 23 24 10z m46 -39 c-3 -8
-11 -15 -18 -15 -9 0 -9 3 2 10 12 7 12 12 2 22 -6 6 -12 16 -12 21 0 5 7 1
16 -8 9 -8 13 -22 10 -30z m-36 11 c0 -3 -4 -8 -10 -11 -5 -3 -10 -1 -10 4 0
6 5 11 10 11 6 0 10 -2 10 -4z m2560 -131 c15 -17 5 -35 -20 -35 -22 0 -33 23
-17 39 15 15 22 14 37 -4z m-2690 -37 c0 -36 -4 -35 -14 5 -4 16 -2 27 4 27 5
0 10 -14 10 -32z m47 26 c-3 -3 -12 -4 -19 -1 -8 3 -5 6 6 6 11 1 17 -2 13 -5z
m58 -22 c1 -13 -3 -26 -9 -29 -6 -3 -8 -3 -4 2 4 4 0 14 -8 22 -8 8 -11 19 -8
24 10 16 27 4 29 -19z m52 -19 c-3 -10 -5 -2 -5 17 0 19 2 27 5 18 2 -10 2
-26 0 -35z m111 15 c-3 -36 -15 -42 -31 -17 -13 21 -2 49 18 49 12 0 15 -8 13
-32z m1788 21 c3 -6 0 -17 -7 -25 -18 -17 -44 -2 -36 20 7 18 33 21 43 5z
m-2012 -34 c-4 -8 -11 -15 -16 -15 -6 0 -5 6 2 15 7 8 14 15 16 15 2 0 1 -7
-2 -15z m86 -15 c0 -5 -5 -10 -11 -10 -5 0 -7 5 -4 10 3 6 8 10 11 10 2 0 4
-4 4 -10z m277 -41 c0 -21 -3 -26 -9 -16 -4 9 -5 22 -2 31 9 23 11 20 11 -15z
m683 27 c0 -3 -4 -8 -10 -11 -5 -3 -10 -1 -10 4 0 6 5 11 10 11 6 0 10 -2 10
-4z m1027 -58 c-2 -13 -4 -5 -4 17 -1 22 1 32 4 23 2 -10 2 -28 0 -40z m448
17 c0 -28 -29 -25 -33 3 -3 19 0 23 15 20 10 -2 18 -12 18 -23z m-660 5 c3 -5
1 -10 -4 -10 -6 0 -11 5 -11 10 0 6 2 10 4 10 3 0 8 -4 11 -10z m15 -59 c0 -9
-5 -22 -12 -29 -17 -17 -39 17 -27 40 11 21 39 13 39 -11z m610 25 c0 -3 -4
-8 -10 -11 -5 -3 -10 -1 -10 4 0 6 5 11 10 11 6 0 10 -2 10 -4z m-740 -41 c0
-14 -5 -25 -11 -25 -5 0 -7 6 -4 13 4 6 -3 1 -14 -13 -20 -24 -25 -36 -22 -53
1 -5 -3 -6 -9 -2 -9 5 -15 -15 -11 -38 1 -5 -3 -6 -8 -2 -11 6 -4 30 28 94 17
33 27 44 49 50 1 1 2 -10 2 -24z m270 -1 c0 -20 -30 -30 -40 -13 -11 17 7 40
26 32 8 -3 14 -12 14 -19z m270 -29 c-4 -5 -5 -23 -4 -40 1 -16 0 -24 -3 -17
-10 25 -20 11 -21 -30 -1 -23 -6 -46 -10 -50 -7 -7 -8 48 -2 62 1 3 2 9 0 15
-1 5 5 14 14 20 8 6 14 18 14 26 -1 7 0 28 1 44 3 30 3 30 10 5 4 -14 5 -29 1
-35z m-2333 31 c-3 -7 -1 -18 5 -24 13 -13 2 -32 -20 -32 -15 0 -15 2 -2 10
11 7 12 12 3 21 -13 13 -7 39 9 39 6 0 8 -6 5 -14z m255 2 c-9 -9 -7 -14 5
-23 17 -13 10 -35 -10 -35 -7 0 -6 4 3 10 13 9 13 12 -3 21 -14 8 -16 14 -6
25 6 8 14 14 17 14 3 0 1 -5 -6 -12z m-216 -23 c-9 -9 -16 -13 -16 -8 0 12 22
34 28 28 2 -2 -3 -11 -12 -20z m124 0 c0 -14 -2 -25 -4 -25 -2 0 -6 11 -8 25
-3 14 -1 25 3 25 5 0 9 -11 9 -25z m-56 -10 c7 -19 -13 -30 -27 -16 -9 9 -7
10 8 5 20 -7 20 -7 1 15 -16 17 -17 21 -4 16 9 -4 19 -13 22 -20z m102 -7 c-9
-12 -16 -19 -16 -15 0 11 24 47 28 42 2 -2 -3 -14 -12 -27z m2230 7 c-3 -8 -1
-15 4 -15 6 0 10 -5 10 -11 0 -6 -7 -9 -15 -5 -12 4 -13 2 -3 -14 14 -22 -5
-52 -28 -43 -10 3 -14 -2 -14 -18 -1 -23 -1 -23 -12 -5 -8 15 -8 21 0 24 7 2
12 10 12 18 0 8 10 30 23 49 23 37 33 45 23 20z m34 -5 c0 -5 -4 -10 -10 -10
-5 0 -10 5 -10 10 0 6 5 10 10 10 6 0 10 -4 10 -10z m-2587 -225 c3 -11 5 5 7
35 l3 55 9 -70 c8 -64 1 -394 -8 -404 -2 -2 -5 31 -5 75 -2 65 -3 72 -9 39 -7
-37 -7 -37 -10 -10 -2 29 -2 29 -9 5 -7 -22 -8 -20 -17 20 -7 37 -10 15 -14
-125 -5 -140 -6 -115 -7 140 -1 269 0 305 12 270 l13 -40 1 71 c1 39 4 93 8
120 7 45 8 40 15 -56 4 -58 9 -114 11 -125z m1913 210 c4 -9 -4 -26 -21 -41
-15 -13 -24 -31 -21 -39 3 -9 0 -12 -8 -9 -15 6 -10 44 6 44 5 0 7 9 3 20 -3
11 -3 24 0 30 9 15 35 12 41 -5z m-261 -25 c0 -8 -8 -16 -17 -18 -13 -2 -18 3
-18 18 0 15 5 20 18 18 9 -2 17 -10 17 -18z m250 -40 c-3 -5 -11 -10 -16 -10
-6 0 -7 5 -4 10 3 6 11 10 16 10 6 0 7 -4 4 -10z m145 -40 c0 -5 -9 -14 -19
-20 -16 -8 -21 -6 -26 10 -9 29 2 42 26 30 10 -6 19 -15 19 -20z m-140 16 c0
-3 -4 -8 -10 -11 -5 -3 -10 -1 -10 4 0 6 5 11 10 11 6 0 10 -2 10 -4z m-60
-16 c0 -5 -5 -10 -11 -10 -5 0 -7 5 -4 10 3 6 8 10 11 10 2 0 4 -4 4 -10z
m610 -10 c0 -5 -4 -10 -9 -10 -5 0 -14 -14 -20 -31 -11 -33 -27 -34 -47 -3
-12 18 -11 20 14 22 15 1 31 9 37 17 11 17 25 20 25 5z m-2334 -15 c3 -8 -1
-21 -9 -30 -22 -21 -34 -19 -14 3 13 14 14 21 5 30 -9 9 -9 12 0 12 7 0 15 -7
18 -15z m39 6 c3 -5 1 -12 -5 -16 -5 -3 -10 1 -10 9 0 18 6 21 15 7z m128 -21
c3 -11 0 -23 -5 -27 -7 -3 -8 -1 -4 5 4 7 1 12 -9 12 -10 0 -13 -5 -9 -12 5
-7 3 -8 -6 -3 -10 6 -10 11 3 20 19 14 23 30 5 19 -7 -4 -8 -3 -4 5 10 15 22
7 29 -19z m95 -6 c-4 -24 -32 -25 -34 -1 -1 12 -1 13 3 2 8 -26 26 -17 20 11
-3 16 -1 22 5 16 6 -6 8 -18 6 -28z m1452 16 c0 -5 -4 -10 -10 -10 -5 0 -10 5
-10 10 0 6 5 10 10 10 6 0 10 -4 10 -10z m185 -20 c3 -5 1 -10 -4 -10 -6 0
-11 5 -11 10 0 6 2 10 4 10 3 0 8 -4 11 -10z m-249 -16 c-3 -9 -6 -18 -6 -20
0 -2 -5 -4 -11 -4 -8 0 -9 4 0 13 6 8 8 17 4 20 -3 4 -1 7 6 7 8 0 11 -6 7
-16z m-119 -10 c8 -21 -13 -42 -28 -27 -13 13 -5 43 11 43 6 0 13 -7 17 -16z
m-2285 -17 c13 -20 3 -31 -30 -33 -37 -2 -46 7 -37 37 6 17 12 19 33 14 15 -4
30 -12 34 -18z m2336 -2 c-3 -3 -9 2 -12 12 -6 14 -5 15 5 6 7 -7 10 -15 7
-18z m317 15 c3 -5 1 -10 -4 -10 -6 0 -11 5 -11 10 0 6 2 10 4 10 3 0 8 -4 11
-10z m-275 -29 c0 -5 -7 -11 -14 -14 -10 -4 -13 -1 -9 9 6 15 23 19 23 5z m34
-3 c-5 -7 -8 -24 -8 -38 -1 -15 -7 -25 -16 -25 -22 0 -24 34 -4 56 19 21 40
26 28 7z m241 2 c3 -5 1 -10 -4 -10 -6 0 -11 5 -11 10 0 6 2 10 4 10 3 0 8 -4
11 -10z m-625 -21 c0 -14 -5 -19 -17 -17 -26 5 -29 38 -4 38 15 0 21 -6 21
-21z m119 -85 c-14 -17 -36 -8 -42 17 -3 10 -1 17 3 14 5 -3 12 0 16 6 5 9 11
7 20 -6 10 -13 11 -22 3 -31z m186 26 c3 -5 1 -10 -4 -10 -6 0 -11 5 -11 10 0
6 2 10 4 10 3 0 8 -4 11 -10z m-1580 -30 c0 -13 -7 -25 -15 -27 -9 -3 -11 -1
-5 4 14 11 18 43 5 43 -5 0 -10 -5 -10 -12 0 -6 -3 -9 -6 -5 -9 9 6 29 19 24
7 -2 12 -14 12 -27z m48 15 c-3 -9 -8 -14 -10 -11 -3 3 -2 9 2 15 9 16 15 13
8 -4z m57 11 c0 -2 -8 -10 -17 -17 -16 -13 -17 -12 -4 4 13 16 21 21 21 13z
m51 -23 c-12 -20 -14 -14 -5 12 4 9 9 14 11 11 3 -2 0 -13 -6 -23z m-34 -5
c-3 -8 -6 -5 -6 6 -1 11 2 17 5 13 3 -3 4 -12 1 -19z m1518 -7 c3 -5 1 -12 -5
-16 -5 -3 -10 1 -10 9 0 18 6 21 15 7z m-1015 -51 c0 -21 -24 -28 -35 -10 -8
14 3 30 21 30 8 0 14 -9 14 -20z m138 -57 c5 -17 -26 -29 -40 -15 -6 6 -7 15
-3 22 9 14 37 9 43 -7z m-763 -53 c-1 -11 -4 -22 -8 -25 -4 -3 -5 -2 -3 1 3 3
1 17 -4 30 -7 17 -6 22 4 18 7 -3 12 -14 11 -24z m163 -1 c-3 -8 -7 -3 -11 10
-4 17 -3 21 5 13 5 -5 8 -16 6 -23z m-58 17 c0 -3 -4 -8 -10 -11 -5 -3 -10 -1
-10 4 0 6 5 11 10 11 6 0 10 -2 10 -4z m-57 -21 c4 -8 3 -16 -1 -19 -4 -3 -9
4 -9 15 -2 23 3 25 10 4z m307 -25 c0 -5 -5 -10 -11 -10 -5 0 -7 5 -4 10 3 6
8 10 11 10 2 0 4 -4 4 -10z m0 -30 c0 -5 -5 -10 -11 -10 -5 0 -7 5 -4 10 3 6
8 10 11 10 2 0 4 -4 4 -10z m-816 -67 c37 1 96 -23 96 -39 0 -11 12 -19 35
-23 13 -2 44 -61 45 -83 0 -24 -34 -31 -122 -24 -40 3 -84 5 -97 5 -32 1 -91
39 -93 59 -5 55 20 104 65 129 19 10 23 9 31 -7 5 -12 18 -18 40 -17z m1223
21 c7 -18 -17 -38 -31 -24 -11 11 -1 40 14 40 6 0 13 -7 17 -16z m-499 -89
c-3 -3 -9 2 -12 12 -6 14 -5 15 5 6 7 -7 10 -15 7 -18z m-218 11 c0 -2 -8 -10
-17 -17 -16 -13 -17 -12 -4 4 13 16 21 21 21 13z m324 -11 c3 -9 -1 -18 -10
-22 -19 -7 -39 11 -30 26 10 16 33 13 40 -4z m142 -56 c10 -17 -23 -46 -37
-32 -7 7 -9 19 -6 27 7 18 33 21 43 5z"/>
<path d="M4045 1210 c-3 -5 -1 -10 4 -10 6 0 11 5 11 10 0 6 -2 10 -4 10 -3 0
-8 -4 -11 -10z"/>
<path d="M4040 1180 c0 -5 5 -10 10 -10 6 0 10 5 10 10 0 6 -4 10 -10 10 -5 0
-10 -4 -10 -10z"/>
<path d="M4300 1020 c0 -11 5 -20 10 -20 6 0 10 9 10 20 0 11 -4 20 -10 20 -5
0 -10 -9 -10 -20z"/>
<path d="M7215 1579 c-4 -6 -5 -12 -2 -15 2 -3 7 2 10 11 7 17 1 20 -8 4z"/>
<path d="M7221 1486 c-74 -106 -187 -254 -295 -386 -44 -52 -56 -74 -47 -80 8
-4 11 -16 6 -29 -7 -24 -18 -27 -34 -7 -10 12 -20 6 -57 -34 -31 -33 -42 -53
-38 -65 4 -9 2 -20 -5 -25 -9 -5 4 -32 43 -94 31 -47 59 -86 64 -86 4 0 17 15
29 33 13 18 31 42 41 53 46 49 54 72 51 141 -4 103 0 165 10 159 5 -4 8 -17 6
-31 -1 -14 1 -28 5 -30 5 -3 7 6 6 20 -4 34 18 52 41 34 11 -10 14 -10 9 -1
-4 6 -2 12 3 12 18 0 12 -28 -6 -33 -17 -4 -17 -5 0 -6 9 0 17 -5 17 -11 0 -5
-6 -7 -13 -4 -8 3 -14 -1 -14 -9 0 -18 39 -14 109 13 70 26 78 25 78 -8 0 -15
6 -34 13 -40 9 -10 13 -90 17 -304 l5 -290 37 -4 c86 -7 178 -90 178 -160 0
-42 -17 -80 -45 -98 -24 -16 -65 -11 -65 8 0 7 -20 26 -45 44 -25 17 -45 37
-46 44 -3 44 -17 -52 -18 -124 l-1 -88 1030 0 1030 0 0 795 0 795 -1013 0
-1013 0 -73 -104z m49 -150 c0 -8 -5 -18 -10 -21 -13 -8 -42 14 -34 26 9 15
44 10 44 -5z m-10 -56 c0 -5 -5 -10 -11 -10 -5 0 -7 5 -4 10 3 6 8 10 11 10 2
0 4 -4 4 -10z m7 -106 c8 -21 -13 -42 -28 -27 -13 13 -5 43 11 43 6 0 13 -7
17 -16z m-260 -40 c8 -21 -13 -42 -28 -27 -13 13 -5 43 11 43 6 0 13 -7 17
-16z m253 -14 c0 -5 -2 -10 -4 -10 -3 0 -8 5 -11 10 -3 6 -1 10 4 10 6 0 11
-4 11 -10z m0 -30 c0 -5 -2 -10 -4 -10 -3 0 -8 5 -11 10 -3 6 -1 10 4 10 6 0
11 -4 11 -10z m-114 -39 c-10 -16 -36 -13 -43 5 -8 22 18 37 36 20 7 -8 10
-19 7 -25z m114 9 c0 -5 -2 -10 -4 -10 -3 0 -8 5 -11 10 -3 6 -1 10 4 10 6 0
11 -4 11 -10z m-373 -216 c8 -21 -13 -42 -28 -27 -13 13 -5 43 11 43 6 0 13
-7 17 -16z"/>
<path d="M6996 905 c-3 -8 -1 -15 4 -15 6 0 10 7 10 15 0 8 -2 15 -4 15 -2 0
-6 -7 -10 -15z"/>
<path d="M6184 869 c-3 -6 -2 -15 3 -20 5 -5 9 -1 9 11 0 23 -2 24 -12 9z"/>
<path d="M6671 820 c-22 -23 -39 -47 -38 -53 1 -5 -8 -13 -21 -16 -12 -3 -40
-23 -62 -45 -31 -30 -37 -41 -27 -50 13 -13 52 -36 61 -36 6 0 87 116 121 175
39 66 20 80 -34 25z"/>
<path d="M7162 653 c-1 -112 1 -203 6 -203 4 0 6 78 4 172 -4 250 -9 264 -10
31z"/>
<path d="M6225 820 c3 -5 8 -10 11 -10 2 0 4 5 4 10 0 6 -5 10 -11 10 -5 0 -7
-4 -4 -10z"/>
<path d="M6849 413 c-3 -16 -1 -44 2 -63 5 -28 7 -23 8 28 1 65 -4 82 -10 35z"/>
<path d="M7226 411 c-4 -7 -5 -15 -2 -18 9 -9 19 4 14 18 -4 11 -6 11 -12 0z"/>
<path d="M4910 338 c0 -4 9 -8 20 -8 11 0 20 4 20 8 0 4 -9 8 -20 8 -11 0 -20
-4 -20 -8z"/>
<path d="M5467 343 c-4 -3 -7 -21 -7 -39 0 -18 -4 -45 -10 -59 -5 -14 -10 -60
-11 -101 -1 -46 -5 -74 -12 -74 -7 0 -7 -4 1 -12 17 -17 15 -28 -4 -28 -14 0
-14 -3 -4 -15 10 -12 43 -15 177 -15 l164 0 -4 68 c-2 37 0 75 5 85 5 10 6 32
2 50 -6 29 -7 30 -20 12 -8 -10 -13 -30 -12 -45 2 -30 -8 -50 -27 -50 -7 0
-15 -7 -19 -15 -6 -17 -42 -20 -51 -5 -3 6 1 10 9 10 21 0 22 73 2 89 -8 7
-18 31 -21 53 -4 23 -13 48 -20 55 -22 22 -109 13 -106 -11 1 -3 1 -25 0 -48
l-1 -43 -10 40 c-5 22 -7 55 -4 73 4 30 -2 40 -17 25z"/>
<path d="M6781 324 c0 -11 3 -14 6 -6 3 7 2 16 -1 19 -3 4 -6 -2 -5 -13z"/>
<path d="M6672 300 c0 -19 2 -27 5 -17 2 9 2 25 0 35 -3 9 -5 1 -5 -18z"/>
<path d="M6267 283 c-4 -3 -7 -24 -7 -46 0 -45 -33 -99 -44 -71 -3 9 -6 26 -6
39 0 12 -7 28 -16 35 -8 8 -14 9 -13 4 4 -24 -4 -36 -10 -14 -7 24 -9 23 -21
-16 -9 -30 -10 -68 -5 -128 l7 -86 151 0 152 0 2 33 c3 46 -5 77 -21 77 -8 0
-16 -7 -20 -15 -3 -8 -13 -15 -21 -15 -13 0 -15 6 -10 28 4 22 0 34 -18 53
-13 13 -34 42 -45 65 -22 44 -45 68 -55 57z"/>
<path d="M4941 108 c-6 -29 -9 -62 -7 -73 3 -11 5 -23 5 -27 1 -5 76 -8 167
-8 l167 0 -6 41 c-6 46 -11 54 -45 64 -19 5 -23 3 -22 -12 4 -37 0 -53 -15
-53 -8 0 -16 6 -17 13 0 6 -2 17 -2 23 -1 6 -7 19 -15 28 -12 14 -12 16 3 10
9 -3 16 -4 16 -1 0 3 -26 14 -57 24 -54 18 -105 18 -104 1 1 -5 1 -18 0 -30 0
-18 -3 -15 -12 12 -19 56 -43 51 -56 -12z m43 16 c7 -19 8 -59 1 -52 -11 10
-23 68 -15 68 4 0 11 -7 14 -16z"/>
<path d="M5291 14 c0 -11 3 -14 6 -6 3 7 2 16 -1 19 -3 4 -6 -2 -5 -13z"/>
</g>
</svg>
